<?xml version="1.0" standalone="no"?>
<!DOCTYPE svg PUBLIC "-//W3C//DTD SVG 20010904//EN"
 "http://www.w3.org/TR/2001/REC-SVG-20010904/DTD/svg10.dtd">
<svg version="1.0" xmlns="http://www.w3.org/2000/svg"
 width="864.000000pt" height="1152.000000pt" viewBox="0 0 864.000000 1152.000000"
 preserveAspectRatio="xMidYMid meet">
<metadata>
Created by potrace 1.15, written by Peter Selinger 2001-2017
</metadata>
<g transform="translate(0.000000,1152.000000) scale(0.100000,-0.100000)"
fill="#000000" stroke="none">
<path d="M274 11413 c0 -12 -5 -17 -17 -16 -14 1 -18 -4 -14 -19 7 -24 -1 -48
-15 -48 -6 0 -8 6 -5 13 3 7 -4 12 -19 12 -33 0 -30 -7 9 -24 17 -8 46 -25 63
-38 17 -13 34 -23 38 -23 7 0 267 -143 461 -253 39 -22 90 -51 115 -64 153
-85 618 -379 780 -495 52 -37 110 -78 128 -90 131 -91 332 -260 412 -348 41
-45 77 -87 79 -94 2 -6 22 -28 43 -49 42 -41 75 -44 63 -7 -4 13 -2 20 7 20
16 0 120 -49 128 -59 3 -4 19 -16 37 -26 18 -10 30 -22 27 -27 -3 -4 2 -8 11
-8 11 0 15 -5 11 -15 -3 -10 1 -15 13 -15 20 0 58 -37 48 -46 -3 -4 1 -20 9
-36 14 -27 14 -31 -2 -42 -11 -8 -15 -20 -11 -30 10 -25 30 -15 42 20 5 16 18
35 27 42 32 23 22 51 -19 58 -30 5 -50 20 -98 73 -65 73 -121 113 -180 133
-21 7 -41 20 -43 28 -5 13 -3 13 11 1 9 -7 24 -11 32 -7 18 6 20 33 3 38 -23
8 71 37 158 49 111 15 273 6 374 -21 76 -20 108 -21 48 -1 -140 45 -341 53
-526 21 -63 -11 -117 -22 -121 -24 -14 -9 -110 54 -127 83 -10 17 -21 28 -26
25 -13 -8 -100 35 -93 46 4 6 -1 7 -11 3 -11 -4 -15 -2 -11 4 4 6 -3 8 -17 6
-19 -4 -27 3 -46 44 -33 71 -44 82 -50 49 l-5 -27 -48 42 c-27 24 -63 63 -80
88 -17 25 -44 59 -60 74 -27 26 -28 27 -22 5 4 -13 14 -31 23 -41 15 -17 15
-17 -13 -7 -33 12 -75 48 -75 63 0 5 -11 23 -26 39 l-25 31 7 -27 c3 -14 4
-26 1 -26 -3 0 -40 35 -81 77 -47 47 -76 70 -76 60 0 -23 -13 -21 -56 8 -20
14 -34 25 -30 25 4 0 -3 10 -15 23 -11 12 -28 32 -36 45 -9 12 -20 22 -26 22
-7 0 -7 -4 1 -12 29 -29 9 -33 -40 -9 -53 26 -91 59 -167 146 -41 46 -47 44
-25 -10 8 -19 7 -19 -18 1 -14 11 -54 52 -88 91 -68 78 -102 103 -70 51 10
-17 17 -35 14 -40 -3 -4 1 -8 9 -8 8 0 17 -6 20 -14 9 -23 -28 -7 -65 28 -41
39 -98 103 -121 136 -12 18 -17 20 -17 8 0 -9 6 -23 13 -30 6 -7 22 -28 34
-45 22 -30 22 -31 2 -26 -11 3 -60 42 -107 87 -212 199 -244 226 -259 226 -7
0 -10 7 -6 17 5 13 2 15 -15 11 -16 -4 -25 0 -32 13 -10 18 -80 59 -126 73
-17 5 -22 3 -20 -11z"/>
<path d="M3248 7873 c-6 -7 -17 -13 -24 -13 -8 0 -14 -5 -14 -11 0 -6 9 -9 20
-6 14 4 25 -4 41 -29 11 -19 25 -34 30 -34 5 0 9 -9 9 -20 0 -16 -7 -20 -30
-20 -20 0 -30 -5 -30 -15 0 -8 -4 -15 -10 -15 -5 0 -10 -4 -10 -9 0 -10 10
-14 61 -25 24 -5 26 -10 25 -58 0 -79 71 -439 91 -459 5 -5 -11 90 -35 209
-41 211 -54 335 -18 180 9 -43 20 -78 23 -78 3 0 3 28 0 63 l-6 62 19 -65 c11
-36 32 -126 46 -200 15 -74 30 -139 34 -143 7 -8 -29 185 -65 353 -9 41 -25
84 -35 95 -27 29 -46 118 -32 149 8 18 7 30 -4 51 -8 15 -14 34 -14 41 0 18
-57 15 -72 -3z"/>
<path d="M4987 7883 c-4 -3 -7 -14 -7 -24 0 -15 -7 -17 -57 -12 -46 5 -55 4
-48 -8 8 -12 6 -12 -8 0 -14 11 -25 12 -55 2 -20 -6 -59 -12 -87 -14 -27 -2 3
-4 67 -5 64 -1 206 -6 315 -12 109 -5 266 -11 348 -13 l150 -4 -85 16 c-69 14
-82 19 -66 28 17 9 16 11 -8 17 -30 7 -34 22 -8 30 10 3 6 4 -8 3 -19 -2 -25
-7 -24 -24 0 -20 -4 -23 -35 -22 -21 0 -30 3 -21 7 8 4 16 15 18 25 3 14 -2
18 -20 15 -16 -2 -24 -11 -28 -33 -4 -20 -11 -29 -21 -26 -8 3 -43 8 -79 11
-36 4 -55 8 -42 8 21 2 32 22 11 22 -5 0 -7 5 -4 10 3 6 -3 10 -13 10 -14 0
-22 -9 -27 -32 -6 -29 -8 -31 -15 -13 -8 18 -9 18 -9 2 -1 -10 -6 -15 -11 -12
-6 4 -8 11 -5 16 4 5 -1 9 -10 9 -11 0 -15 5 -11 15 4 11 -1 15 -19 15 -18 0
-25 -5 -25 -20 0 -11 -7 -20 -15 -20 -8 0 -14 3 -14 8 5 27 -8 41 -24 25z"/>
<path d="M5933 7872 c-26 -4 -29 -12 -10 -31 8 -10 8 -12 0 -7 -18 10 -24 -9
-9 -29 9 -12 19 -16 32 -11 15 6 16 9 4 16 -8 5 -11 12 -8 16 4 3 14 0 22 -9
8 -8 12 -18 8 -21 -4 -4 26 -5 65 -2 39 3 73 2 75 -3 2 -5 54 -12 116 -16 96
-6 112 -5 112 8 0 10 -7 14 -22 10 -19 -4 -20 -3 -8 6 10 7 11 11 3 11 -9 0
-10 7 -4 23 8 22 7 22 -84 24 l-92 2 -1 -31 c-1 -40 -12 -50 -12 -10 0 31 -27
51 -49 37 -5 -3 -12 -1 -16 5 -3 5 -20 10 -36 10 -26 0 -29 -2 -19 -19 7 -13
7 -22 0 -26 -5 -3 -10 3 -10 14 0 24 -26 39 -57 33z"/>
<path d="M6355 7850 c-3 -5 -1 -10 6 -10 10 0 10 -3 1 -12 -18 -18 -15 -46 6
-51 9 -3 37 -4 62 -3 25 1 53 -3 64 -10 10 -7 25 -10 32 -7 8 3 14 0 14 -6 0
-6 10 -11 23 -10 21 0 21 1 2 9 -12 6 39 7 128 3 85 -3 147 -2 147 3 0 19 -16
32 -45 37 -27 4 -26 4 8 6 34 1 38 4 35 24 -3 19 -10 22 -59 25 -49 2 -57 0
-55 -15 1 -13 -7 -19 -26 -21 -16 -2 -28 1 -28 7 0 6 6 11 14 11 8 0 18 5 21
10 4 6 -13 10 -45 10 -28 0 -49 -4 -46 -8 2 -4 1 -14 -5 -22 -7 -13 -9 -12 -9
3 0 31 -20 18 -21 -15 l-2 -33 -10 38 c-10 35 -13 37 -53 37 -37 0 -43 -3 -49
-27 -6 -24 -8 -26 -16 -10 -6 9 -8 21 -5 26 6 10 -26 21 -61 21 -12 0 -25 -4
-28 -10z"/>
<path d="M7190 7821 c0 -11 -5 -32 -11 -48 -10 -26 -12 -27 -19 -8 -5 11 -9
16 -9 10 -1 -11 -91 -14 -91 -3 0 10 -74 5 -78 -5 -9 -21 18 -26 188 -31 269
-9 412 -17 434 -23 12 -3 16 -1 12 6 -4 6 0 11 9 11 9 0 14 -4 11 -9 -8 -12
134 -23 217 -16 47 3 65 2 52 -4 -14 -6 15 -10 93 -12 113 -4 113 -4 109 19
-2 12 0 22 4 22 5 0 9 -9 9 -19 0 -11 5 -23 10 -26 7 -4 10 8 9 34 -3 38 -13
54 -21 31 -2 -6 -22 -8 -53 -3 l-50 6 35 12 c19 7 41 10 48 7 6 -2 12 2 12 10
0 11 -18 15 -77 16 -43 1 -85 4 -93 7 -8 2 -22 0 -30 -5 -17 -11 -9 -13 33
-10 26 2 28 0 17 -19 -9 -18 -17 -20 -53 -15 -52 8 -57 12 -34 29 17 12 16 14
-12 20 -41 9 -49 2 -57 -50 -7 -52 -23 -60 -25 -12 -2 27 -2 28 -6 7 -6 -34
-23 -50 -23 -23 0 16 -7 23 -27 26 -25 3 -24 4 6 6 26 1 32 4 24 12 -6 6 -9
18 -6 25 3 8 -1 14 -8 14 -55 2 -162 11 -202 16 -44 6 -48 5 -46 -12 1 -10 -1
-26 -4 -34 -3 -8 -8 -22 -10 -30 -3 -8 -6 1 -7 20 l-2 35 -9 -33 c-8 -26 -12
-30 -23 -20 -8 7 -10 15 -5 16 21 8 7 22 -22 22 -17 0 -28 4 -24 10 3 6 17 10
31 10 13 0 24 5 24 10 0 6 -10 10 -22 10 -13 0 -40 3 -60 6 l-38 7 0 -37 c0
-36 0 -36 -42 -35 l-43 2 40 7 c35 6 37 8 18 15 -13 4 -23 13 -23 21 0 8 6 11
15 8 8 -4 15 -1 15 5 0 7 -21 11 -55 11 -48 0 -55 -3 -55 -19z"/>
<path d="M4260 7816 c-36 -8 -90 -19 -120 -25 -163 -31 -175 -35 -204 -64 -17
-17 -31 -25 -35 -19 -9 14 -61 27 -61 14 0 -5 7 -15 15 -22 12 -10 12 -15 1
-33 -8 -12 -17 -38 -21 -57 -4 -19 -23 -53 -41 -76 -39 -47 -53 -96 -34 -119
7 -9 14 -28 16 -43 5 -51 16 -92 25 -92 5 0 9 -12 9 -26 0 -15 18 -62 40 -105
44 -86 49 -115 24 -134 -16 -11 -15 -16 8 -66 32 -69 78 -137 78 -115 0 9 -8
33 -19 54 -22 45 -44 250 -32 304 5 20 6 67 4 105 l-5 69 38 37 c28 26 45 35
59 31 35 -11 45 -25 45 -65 0 -28 7 -44 26 -63 l27 -24 -28 -26 c-15 -14 -47
-35 -70 -46 -63 -30 -67 -39 -58 -107 8 -54 10 -58 35 -58 15 1 26 -2 25 -5
-4 -14 27 -51 52 -64 21 -11 31 -12 40 -3 14 14 14 2 0 -24 -5 -11 -15 -48
-20 -82 -6 -34 -15 -67 -21 -74 -7 -9 -6 -24 6 -53 19 -48 20 -53 4 -44 -6 4
3 -14 21 -40 42 -60 27 -93 -19 -44 -20 21 -23 22 -48 7 -25 -14 -31 -14 -82
7 -66 27 -98 29 -128 8 -20 -14 -36 -14 -124 -5 -69 8 -105 8 -112 1 -11 -11
-76 -14 -76 -3 0 3 7 15 17 25 15 17 15 19 0 36 -9 10 -19 37 -23 60 -6 38 -5
42 15 42 17 0 21 6 21 29 0 17 -4 33 -10 36 -5 3 -10 19 -10 35 0 16 5 32 10
35 19 12 10 23 -25 29 -35 7 -44 19 -25 31 6 4 22 -1 36 -10 25 -16 25 -16 14
4 -6 12 -17 21 -25 21 -9 0 -16 14 -20 38 -3 20 -10 50 -15 66 -5 16 -7 32 -5
36 7 12 -22 151 -34 163 -14 14 -14 -6 -1 -70 6 -26 12 -68 14 -93 3 -25 10
-66 17 -92 10 -40 10 -49 -4 -63 -22 -22 -21 -37 3 -68 11 -14 20 -35 20 -46
0 -12 5 -21 10 -21 6 0 10 8 10 18 0 14 2 15 10 2 17 -26 12 -57 -11 -63 -19
-5 -21 -11 -15 -44 4 -21 6 -47 6 -58 -1 -11 -1 -36 -2 -56 0 -36 -1 -36 -57
-49 -76 -17 -247 -73 -345 -114 -45 -18 -106 -41 -136 -51 -77 -25 -90 -42
-91 -129 -1 -39 -3 -63 -6 -53 -2 9 -8 17 -13 17 -5 0 -11 -8 -13 -17 -4 -16
-5 -16 -6 -1 -1 11 -7 15 -22 11 -11 -3 -41 4 -66 17 -50 25 -134 29 -206 9
-31 -8 -37 -14 -31 -27 3 -9 7 -26 8 -37 1 -18 -4 -20 -55 -17 -47 3 -61 -1
-85 -21 -16 -13 -38 -27 -49 -31 -11 -3 -41 -27 -67 -53 -26 -27 -67 -69 -92
-94 -25 -26 -46 -53 -46 -61 0 -8 -9 -23 -20 -33 -11 -10 -20 -25 -20 -34 0
-9 -7 -29 -15 -45 -22 -41 -19 -46 21 -34 44 12 50 7 32 -28 -17 -36 -29 -39
-56 -13 l-23 21 -32 -25 c-18 -13 -50 -33 -72 -45 -23 -12 -53 -40 -70 -66
-16 -25 -34 -46 -38 -46 -12 0 -56 -53 -57 -68 0 -7 -5 -10 -11 -6 -8 4 -9 -4
-4 -27 4 -22 3 -29 -3 -21 -7 11 -10 11 -15 -2 -4 -9 -2 -16 3 -16 6 0 10 -5
10 -11 0 -6 -6 -9 -12 -6 -7 2 -19 -3 -26 -12 -12 -14 -13 -13 -7 9 4 14 19
70 33 124 24 92 30 104 80 158 47 50 51 58 32 58 -28 0 -410 -46 -505 -60
-180 -28 -679 -87 -696 -83 -10 3 -16 9 -13 14 3 5 -6 13 -20 18 -28 11 -30
18 -47 125 -9 59 -16 80 -29 83 -11 3 -21 23 -29 56 -10 45 -10 53 5 64 15 11
13 28 -16 204 -26 155 -37 201 -58 231 -30 46 -20 44 -145 33 l-77 -7 -16 -36
c-8 -20 -15 -50 -16 -67 0 -25 23 -181 50 -339 5 -23 15 -43 27 -50 11 -6 21
-11 21 -11 1 0 -2 -33 -7 -74 -6 -53 -4 -95 7 -153 15 -82 13 -98 -13 -98 -11
0 -14 -6 -10 -22 4 -12 3 -27 -2 -32 -4 -6 0 -58 10 -116 17 -93 69 -427 69
-437 0 -3 14 -3 32 -1 l31 3 22 -125 c29 -157 124 -745 127 -784 l3 -30 -139
-27 c-171 -34 -246 -44 -246 -33 0 5 -16 104 -35 219 -32 189 -56 326 -99 555
-12 67 -14 -28 -15 -850 0 -758 2 -939 14 -1005 7 -44 30 -170 50 -280 20
-110 37 -206 38 -213 1 -8 -20 -22 -50 -34 -53 -19 -53 -19 -53 -64 0 -35 4
-44 18 -44 16 -1 16 -1 0 -11 -17 -9 -18 -35 -18 -309 0 -165 3 -300 6 -300 3
0 53 14 111 31 58 16 106 29 108 27 2 -2 6 -24 9 -49 6 -45 5 -47 -23 -52 -17
-4 -30 -14 -34 -26 -5 -22 -27 -29 -27 -9 0 7 -6 5 -17 -4 -10 -9 -44 -19 -75
-23 l-58 -6 0 -790 0 -789 138 0 139 0 12 217 c7 120 18 315 26 433 27 423 37
608 65 1245 6 127 11 347 13 490 l2 260 -48 270 c-45 250 -62 350 -69 399 -3
17 8 22 72 37 115 28 106 37 98 -98 -9 -135 -5 -158 20 -128 9 11 24 21 32 22
75 8 157 28 167 41 12 14 13 14 13 -4 0 -12 3 -24 7 -27 11 -11 32 14 26 31
-4 14 -3 14 5 3 9 -12 15 -12 44 -1 18 8 36 18 40 24 3 5 25 11 48 12 23 1 46
8 51 15 8 12 11 12 19 -1 9 -13 12 -12 22 5 11 19 11 19 19 0 9 -24 12 149 3
183 -4 13 -14 22 -26 22 -32 0 -14 24 23 31 49 9 305 63 519 109 102 22 311
68 465 101 154 33 314 69 355 79 41 10 208 46 370 80 283 58 300 63 420 119
183 86 250 111 250 92 0 -6 -8 -11 -17 -11 -14 0 -13 -3 5 -16 28 -19 28 -34
1 -34 -11 0 -17 -5 -14 -10 3 -5 -4 -10 -16 -10 -17 0 -19 -3 -10 -13 11 -14
-3 -25 -54 -42 -19 -6 -19 -7 5 -20 l25 -13 -30 -14 c-17 -7 -36 -18 -43 -25
-12 -12 -46 -17 -97 -14 -11 0 -2 -6 20 -15 22 -8 46 -21 54 -29 13 -12 12
-15 -2 -21 -9 -3 -14 -11 -11 -16 4 -6 -2 -7 -17 -3 -56 18 -125 35 -144 34
-15 0 -12 -4 14 -18 27 -15 30 -19 16 -24 -22 -9 -27 -9 -21 2 3 5 -16 12 -42
15 -26 4 -56 9 -67 12 -16 4 -15 1 5 -11 l25 -16 -27 5 c-16 3 -40 9 -55 12
-16 3 -3 -5 27 -18 63 -28 118 -57 108 -58 -4 0 -40 11 -80 24 -40 12 -109 26
-153 29 l-80 6 70 -29 70 -29 -40 -2 -40 -2 45 -8 c25 -4 61 -12 80 -18 34
-10 33 -10 -17 -7 l-53 3 27 -23 c27 -23 30 -23 279 -23 139 0 263 -3 275 -6
13 -3 96 -8 184 -11 226 -7 239 -7 341 -3 66 3 98 0 118 -10 24 -13 32 -13 75
3 38 13 64 16 122 10 43 -3 90 -2 112 4 21 6 35 6 32 1 -7 -10 6 -12 28 -3 8
3 13 13 10 23 -8 30 23 79 54 86 16 3 46 21 68 40 43 38 51 41 57 23 3 -8 11
-7 28 5 28 20 62 22 92 6 14 -8 17 -13 9 -18 -13 -9 23 -53 52 -64 23 -9 24
-89 1 -108 -13 -10 -17 -10 -25 2 -6 9 -9 10 -9 2 0 -7 -7 -10 -15 -7 -8 4
-15 1 -15 -6 0 -7 -8 -10 -20 -7 -29 8 -54 -18 -101 -106 -23 -43 -47 -81 -54
-84 -7 -2 -16 -16 -20 -30 -5 -21 -10 -24 -30 -19 -23 6 -25 3 -25 -25 0 -24
4 -30 15 -25 8 3 15 1 15 -4 0 -14 -15 -20 -36 -14 -16 4 -19 13 -16 62 2 31
9 62 16 67 8 6 14 23 14 39 0 15 -3 24 -7 18 -3 -6 -19 -14 -35 -18 -16 -4
-31 -15 -33 -25 -3 -10 -20 -28 -38 -39 -21 -13 -35 -31 -40 -53 -4 -17 -9
-27 -12 -20 -2 6 2 31 8 55 18 59 18 58 -18 73 -29 12 -32 12 -38 -8 -4 -12
-7 -45 -8 -74 -1 -28 -4 -53 -7 -56 -12 -11 -46 -16 -58 -8 -17 10 -35 87 -27
112 5 15 2 19 -17 17 -20 -3 -23 1 -20 31 3 34 2 34 -18 16 -12 -11 -20 -13
-20 -6 0 7 -4 10 -10 6 -6 -4 -6 -15 0 -31 15 -38 12 -100 -5 -114 -9 -7 -29
-10 -52 -6 -43 7 -59 0 -64 -29 -11 -58 -55 10 -68 105 -5 35 -10 45 -25 45
-13 0 -23 -11 -31 -35 -7 -20 -25 -43 -43 -55 -17 -11 -31 -26 -32 -33 0 -8
-9 -16 -20 -19 -21 -6 -26 -18 -11 -28 14 -8 -8 -65 -24 -65 -18 0 -28 30 -14
46 7 9 7 19 -2 35 -13 26 -41 151 -37 170 2 7 -6 15 -16 17 -20 4 -55 -31 -56
-56 0 -22 -83 -90 -117 -97 -18 -3 -42 -1 -52 5 -15 8 -22 7 -29 -6 -8 -14
-10 -14 -22 1 -12 14 -15 14 -32 -2 -18 -17 -19 -16 -16 37 3 46 0 55 -15 58
-10 2 -26 -3 -36 -12 -10 -9 -21 -13 -24 -9 -4 3 -7 2 -7 -4 0 -15 -47 -33
-85 -33 -35 0 -39 6 -36 43 3 24 -19 21 -54 -8 -29 -24 -88 -55 -106 -55 -14
0 -11 38 4 44 6 3 -1 3 -18 0 -16 -3 -37 -12 -46 -20 -20 -18 -43 -18 -59 1
-16 19 -129 20 -181 1 -19 -7 -51 -11 -70 -8 -19 2 -59 -5 -89 -16 -51 -17
-143 -22 -158 -8 -3 3 2 14 11 24 10 10 17 22 17 26 0 16 103 106 155 135 29
17 57 37 62 44 4 8 19 21 33 29 32 20 74 33 67 21 -4 -6 8 -7 30 -4 38 6 49
24 17 29 -10 2 -46 12 -80 23 -60 19 -178 24 -234 9 -21 -6 -17 -8 24 -14 27
-4 55 -10 62 -13 20 -7 17 -23 -3 -23 -25 0 -81 -19 -150 -52 -35 -17 -63 -31
-63 -32 0 -1 15 -1 33 1 22 2 12 -4 -33 -20 -133 -48 -319 -137 -320 -153 0
-6 -14 -38 -32 -70 l-31 -59 12 -80 c6 -44 13 -89 15 -100 3 -11 5 -25 5 -32
1 -6 8 -18 16 -27 8 -8 11 -17 6 -20 -10 -7 -64 75 -76 115 -4 13 -16 39 -26
58 -11 18 -19 41 -18 50 1 9 1 33 0 53 -1 30 -4 36 -17 31 -9 -3 -20 -15 -24
-27 -7 -17 -9 -18 -9 -3 -1 23 -41 23 -41 0 0 -30 62 -328 71 -337 4 -5 37 -3
74 3 l67 12 66 -54 c74 -60 142 -97 217 -121 62 -20 75 -20 205 -11 179 13
160 18 182 -45 16 -45 21 -91 25 -244 4 -144 8 -193 19 -203 8 -8 14 -23 14
-34 0 -24 69 -101 83 -92 6 3 7 1 3 -6 -4 -6 6 -36 23 -66 17 -30 31 -61 31
-69 0 -7 6 -19 14 -25 8 -7 18 -26 21 -42 4 -16 11 -26 17 -23 5 3 8 -2 7 -12
-2 -11 11 -39 29 -63 18 -24 32 -52 32 -63 0 -10 11 -44 24 -76 13 -31 42
-111 64 -177 51 -152 65 -191 270 -755 39 -107 107 -298 152 -425 44 -126 87
-246 94 -265 l14 -35 1211 -3 1212 -2 -11 21 c-7 11 -18 28 -26 37 -37 43 -64
81 -64 91 0 6 -4 11 -10 11 -5 0 -10 6 -10 13 0 8 -9 22 -20 32 -11 10 -20 24
-20 32 0 7 -7 16 -15 19 -8 4 -15 12 -15 20 0 8 -9 19 -19 26 -10 6 -17 17
-15 23 3 6 -4 20 -16 30 -11 10 -20 24 -20 32 0 7 -4 13 -10 13 -5 0 -10 6
-10 13 0 8 -9 22 -20 32 -11 10 -20 25 -20 33 0 8 -9 22 -20 32 -10 9 -24 28
-30 41 -5 13 -14 31 -20 39 -5 8 -16 31 -25 50 -8 19 -20 44 -27 54 -7 11 -36
54 -64 95 -42 64 -109 171 -149 239 -60 101 -75 133 -71 141 3 5 -1 11 -9 15
-9 3 -12 12 -8 22 4 12 3 15 -5 10 -8 -5 -12 4 -12 28 0 23 5 36 15 38 13 2
10 12 -14 50 -17 27 -35 48 -41 48 -17 0 -11 -18 16 -45 23 -23 25 -30 17 -63
l-9 -37 -8 38 c-4 21 -25 66 -46 100 -22 34 -51 87 -65 117 -15 30 -32 66 -38
79 -7 13 -10 35 -9 48 2 13 -2 31 -9 39 -9 11 -7 21 14 52 24 34 30 37 76 37
27 0 47 3 45 7 -3 5 2 8 10 8 10 0 16 9 16 25 0 19 7 26 27 31 33 9 50 24 55
50 2 11 13 20 26 22 12 2 22 8 22 14 0 7 5 6 15 -2 16 -14 35 -5 35 16 0 8 7
17 15 20 8 4 15 12 15 20 0 8 9 14 20 14 11 0 20 5 20 10 0 6 9 10 21 10 20 0
20 0 -3 29 -13 17 -29 28 -37 25 -9 -3 -11 1 -7 12 6 14 -46 93 -66 102 -5 2
-8 11 -8 19 0 17 16 -3 234 -287 74 -96 223 -287 331 -425 108 -137 233 -297
278 -355 140 -181 289 -372 357 -456 79 -99 116 -148 289 -374 73 -96 151
-199 174 -228 l40 -53 68 2 c76 2 76 -1 15 74 -23 27 -45 56 -51 63 -5 8 -20
25 -32 38 -13 14 -23 29 -23 34 0 4 -3 10 -7 12 -5 1 -28 30 -53 63 -72 95
-74 97 -102 128 -16 16 -28 32 -28 36 0 4 -13 23 -29 42 -63 73 -65 76 -271
339 -49 63 -93 120 -98 125 -20 26 -181 234 -212 276 -98 131 -186 245 -198
257 -7 8 -25 30 -40 50 -15 21 -29 39 -32 42 -10 9 -193 249 -226 296 -17 25
-43 58 -57 74 -24 26 -58 83 -57 95 1 21 -2 25 -15 25 -8 0 -15 7 -15 15 0 9
-7 18 -15 21 -8 4 -15 13 -15 21 0 8 -15 31 -34 51 -28 29 -33 39 -23 51 10
12 8 13 -13 7 -19 -6 -21 -5 -10 3 12 8 12 13 2 23 -6 6 -12 20 -12 29 0 10
-6 19 -12 22 -7 2 -3 2 10 0 18 -3 23 0 20 14 -2 10 -14 19 -28 21 -35 5 -50
20 -50 51 0 21 2 23 11 11 9 -12 10 -11 6 8 -3 12 -1 22 4 22 5 0 9 -4 9 -10
0 -5 7 -7 15 -4 9 4 15 18 14 33 l-1 26 -8 -25 -7 -25 -11 26 c-11 28 -6 69 9
69 4 0 13 -8 18 -17 10 -17 10 -16 11 2 1 11 4 14 7 8 16 -42 53 16 53 83 l0
34 55 0 c59 0 66 6 35 33 -11 9 -20 24 -20 32 0 8 -4 15 -10 15 -5 0 -10 9
-10 20 0 11 5 20 10 20 6 0 10 12 10 26 0 15 4 23 11 19 6 -4 5 2 -3 14 -13
22 -29 23 -36 3 -2 -8 3 -10 15 -6 14 6 15 4 6 -6 -17 -19 -31 -4 -29 32 1 24
-6 39 -28 60 -16 16 -27 31 -23 34 9 9 67 -60 62 -74 -3 -7 0 -10 6 -7 5 4 25
-10 43 -31 l32 -37 22 28 c18 23 24 25 37 15 21 -17 19 -35 -7 -52 -21 -14
-21 -14 23 -69 62 -75 81 -97 255 -289 32 -37 93 -104 134 -150 41 -46 98
-109 126 -140 28 -30 79 -86 114 -125 35 -38 120 -131 189 -205 70 -74 160
-171 201 -215 81 -86 316 -339 416 -445 33 -36 141 -153 239 -260 98 -107 210
-229 249 -270 39 -42 116 -125 171 -185 102 -112 189 -206 305 -328 36 -38 69
-75 73 -83 6 -11 32 -14 107 -14 55 0 102 4 105 10 3 6 1 10 -5 10 -16 0 -130
120 -130 137 0 7 -6 13 -13 13 -21 0 -81 67 -65 73 7 3 3 6 -9 6 -13 1 -23 7
-23 16 0 8 -4 15 -10 15 -5 0 -10 5 -10 10 0 6 -12 28 -26 49 -18 28 -31 37
-43 34 -11 -3 -22 0 -25 6 -4 6 -2 11 5 11 7 0 5 8 -6 20 -10 11 -24 20 -32
20 -7 0 -13 9 -13 20 0 11 -3 19 -7 19 -21 -3 -26 2 -13 12 12 9 11 10 -7 6
-13 -3 -23 -1 -23 4 0 4 -21 28 -46 53 -30 28 -44 48 -39 57 5 8 4 10 -3 5 -8
-5 -12 0 -12 13 0 15 -4 19 -17 14 -11 -4 -14 -3 -9 5 4 7 1 12 -8 12 -18 0
-58 49 -50 61 3 5 1 9 -4 9 -5 0 -31 28 -57 61 -27 34 -95 109 -151 167 -57
57 -110 115 -119 128 -8 13 -21 24 -28 24 -6 1 -29 24 -50 53 -20 29 -63 80
-95 113 -31 34 -86 94 -122 133 -98 109 -115 127 -245 267 -66 71 -159 169
-207 219 -48 50 -95 100 -105 111 -56 64 -157 176 -216 239 -37 40 -80 88 -95
107 -23 30 -60 71 -122 137 -9 9 -29 36 -45 60 -16 24 -35 45 -42 48 -7 3 -13
10 -13 17 0 6 -13 24 -30 39 -16 16 -30 37 -30 48 0 11 -7 19 -16 19 -8 0 -13
4 -9 9 3 6 -5 15 -17 22 -28 14 -106 97 -114 122 -3 9 -11 17 -19 17 -7 0 -21
12 -31 27 -23 36 -57 73 -67 73 -21 0 -52 38 -55 65 -2 17 -10 35 -18 41 -7 6
-14 17 -14 25 1 10 4 9 11 -3 12 -22 38 -23 45 -3 4 8 18 15 32 15 14 0 34 8
45 17 18 17 19 17 32 0 7 -10 25 -17 44 -17 24 0 31 -4 31 -20 0 -11 4 -20 9
-20 5 0 23 -12 40 -26 17 -14 31 -21 31 -15 0 6 9 11 21 11 11 0 18 -4 15 -9
-10 -16 22 -32 81 -41 32 -4 59 -7 60 -6 1 1 4 14 7 29 5 31 -13 37 -21 7 -4
-16 -14 -20 -44 -20 -57 0 -54 28 3 32 40 3 43 5 44 35 1 18 -2 31 -6 30 -5
-1 -16 7 -24 18 -14 17 -17 18 -26 5 -9 -12 -10 -10 -5 8 4 12 2 22 -4 22 -5
0 -12 9 -16 19 -5 17 -38 35 -57 32 -5 -1 -7 5 -5 12 1 6 -4 11 -10 10 -7 -2
-13 1 -13 6 0 5 -9 13 -20 16 -11 3 -20 12 -20 19 0 23 -25 37 -40 23 -8 -7
-11 -8 -7 -1 7 11 -26 39 -69 59 -44 20 -95 75 -89 94 3 11 -4 28 -19 44 -13
14 -22 28 -20 30 3 3 -9 16 -26 30 -16 14 -30 30 -30 35 0 5 -13 8 -28 6 -20
-2 -29 1 -29 11 0 11 5 12 21 3 21 -11 21 -11 2 10 -10 12 -22 19 -26 17 -4
-3 -10 4 -13 15 -4 17 -15 20 -88 22 l-84 3 2 108 c2 59 7 117 13 127 12 23 7
51 -27 142 l-24 67 20 20 c26 26 26 24 -4 100 l-24 63 20 27 c11 15 26 45 34
67 l13 39 139 27 c76 16 164 33 196 39 l59 11 51 -48 c216 -206 367 -360 363
-371 -3 -7 0 -12 7 -10 6 1 13 -7 14 -18 3 -20 -19 -56 -269 -427 -76 -112
-138 -208 -138 -214 0 -13 137 -144 151 -144 6 0 20 11 30 24 25 32 74 39 96
14 14 -16 15 -23 5 -39 -10 -15 -10 -19 0 -20 7 0 4 -4 -7 -9 l-20 -9 20 0
c17 -1 17 -3 5 -11 -8 -5 -25 -10 -37 -10 -36 0 -28 -15 39 -72 85 -73 133
-117 363 -329 110 -101 274 -251 365 -334 158 -143 198 -179 355 -325 38 -36
99 -92 135 -125 36 -32 101 -93 145 -135 75 -70 191 -179 540 -504 77 -72 178
-167 225 -211 47 -44 117 -109 155 -145 39 -35 104 -96 145 -134 42 -39 92
-87 113 -105 l37 -35 0 587 c0 481 -2 587 -13 587 -20 0 -61 47 -48 55 6 3 11
-1 11 -9 0 -8 9 -20 19 -26 24 -13 31 -13 31 0 0 12 -105 90 -121 90 -6 0 -9
6 -6 13 3 7 -4 19 -15 26 -19 12 -20 11 -16 -7 3 -11 1 -26 -4 -33 -7 -12 -9
-11 -7 1 3 34 -2 47 -30 63 -36 21 -41 21 -42 0 0 -11 -3 -13 -6 -5 -2 6 -13
12 -23 12 -10 0 -22 5 -26 12 -5 8 0 9 15 5 19 -5 20 -3 10 10 -7 8 -23 13
-35 10 -17 -3 -21 0 -16 11 4 12 1 14 -12 9 -12 -5 -27 3 -48 23 -16 17 -35
27 -41 23 -7 -3 -9 -3 -5 2 10 11 -17 35 -41 35 -10 0 -33 11 -49 25 -17 14
-35 25 -42 25 -6 0 -9 4 -5 9 3 5 -5 13 -17 16 -23 7 -116 76 -166 122 -14 13
-30 23 -36 23 -6 0 -16 8 -22 18 -6 9 -31 31 -55 47 -51 34 -163 121 -195 150
-12 11 -28 25 -36 30 -65 50 -104 81 -108 86 -3 4 -14 9 -25 13 -11 3 -47 32
-81 63 -61 58 -118 103 -130 103 -16 0 -94 57 -99 73 -4 9 -13 17 -21 17 -8 0
-14 5 -14 10 0 6 -4 10 -9 10 -6 0 -25 14 -43 30 -18 17 -61 47 -95 66 -34 19
-65 39 -69 45 -3 6 -38 32 -78 58 -86 56 -196 135 -245 177 -20 17 -74 58
-121 91 -186 133 -305 225 -308 239 -2 8 9 35 23 60 26 45 29 46 66 41 37 -5
114 -58 103 -70 -3 -3 4 -8 15 -12 12 -3 21 -10 21 -15 0 -8 172 -145 236
-187 18 -13 38 -31 43 -41 5 -10 32 -24 60 -31 39 -10 48 -16 44 -28 -4 -10
-2 -14 4 -10 16 10 43 -3 43 -19 0 -8 5 -14 10 -14 6 0 10 -8 10 -19 0 -11 12
-23 29 -31 16 -6 32 -18 35 -26 3 -8 22 -22 43 -30 20 -9 57 -33 83 -55 25
-21 50 -39 54 -39 5 0 19 -11 32 -25 13 -14 26 -25 29 -25 4 0 33 -20 65 -45
32 -25 63 -45 69 -45 6 0 28 -15 48 -34 21 -18 47 -36 58 -40 11 -3 40 -24 65
-46 25 -22 50 -40 56 -40 5 0 32 -20 60 -45 27 -25 59 -48 72 -51 12 -3 22
-11 22 -18 0 -6 15 -21 33 -33 17 -13 46 -35 62 -51 17 -16 42 -32 56 -35 15
-4 33 -21 45 -42 10 -20 24 -33 31 -30 7 2 13 1 13 -3 0 -4 14 -13 31 -21 33
-14 117 -67 161 -101 14 -11 30 -20 35 -20 5 0 20 -11 33 -25 13 -14 31 -25
40 -25 8 0 24 -13 33 -30 10 -16 24 -30 31 -30 17 0 86 -70 86 -87 0 -7 11
-13 25 -13 26 0 35 -24 12 -33 -6 -3 7 -2 31 0 28 4 42 2 42 -6 0 -6 11 -16
25 -21 22 -8 25 -16 25 -55 0 -33 4 -45 15 -45 8 0 15 9 15 20 0 25 20 25 53
0 14 -11 32 -20 40 -20 7 0 22 -9 32 -20 10 -11 22 -20 27 -20 4 0 8 73 8 163
l0 162 -76 50 c-41 28 -83 55 -92 60 -21 13 -250 163 -277 182 -90 63 -201
133 -210 133 -6 0 -24 12 -41 28 -16 15 -41 32 -54 38 -21 10 -53 33 -127 94
-7 6 -16 10 -20 10 -4 0 -30 17 -58 38 -27 21 -64 44 -82 51 -17 7 -41 23 -54
37 -12 13 -28 24 -36 24 -7 0 -21 6 -30 14 -131 105 -315 236 -332 236 -5 0
-16 6 -23 13 -7 6 -30 21 -50 32 -21 11 -38 22 -38 25 0 4 -19 17 -42 30 -24
13 -61 38 -82 57 -22 18 -46 33 -54 33 -8 0 -31 13 -51 29 -55 43 -83 55 -123
52 -26 -2 -44 4 -62 20 -29 26 -33 39 -11 39 8 0 15 5 15 11 0 6 -10 10 -22 9
-36 -3 -48 -1 -48 10 0 5 8 7 18 3 9 -3 -1 11 -23 31 -22 19 -44 36 -48 36 -5
0 -21 11 -35 25 -15 13 -39 35 -55 48 -15 12 -29 33 -32 45 -4 21 -3 22 28 6
18 -9 40 -23 50 -32 9 -8 17 -10 17 -4 0 6 -12 19 -27 30 -22 16 -28 30 -33
76 -3 32 -3 59 2 62 4 3 8 0 8 -5 0 -17 28 -13 32 5 2 13 15 9 73 -22 112 -60
139 -72 147 -67 5 2 8 -1 8 -6 0 -6 7 -11 16 -11 8 0 12 -4 9 -10 -3 -5 1 -10
10 -10 9 0 30 -9 47 -21 16 -12 32 -18 35 -15 8 8 16 1 -102 84 -55 39 -111
79 -125 90 -14 10 -92 60 -175 112 -281 176 -714 460 -771 507 -23 18 -47 46
-52 61 -20 51 -43 162 -36 173 3 6 -15 29 -40 52 -34 32 -48 53 -55 86 l-9 43
35 -5 c19 -3 53 -15 76 -26 121 -57 237 -114 280 -137 67 -36 177 -57 254 -48
59 6 64 9 97 52 20 25 41 60 48 79 7 18 17 32 23 30 6 -3 11 19 13 56 2 55 -1
63 -31 101 -55 68 -106 153 -133 224 -49 128 -73 171 -150 267 -9 11 -20 32
-26 48 -5 15 -13 27 -18 27 -4 0 -30 30 -58 68 -51 67 -65 84 -196 222 -89 95
-138 163 -130 184 3 9 9 16 13 16 4 0 15 6 25 13 17 13 17 15 -5 39 -13 14
-37 52 -53 84 -34 69 -59 96 -80 88 -12 -5 -13 -10 -3 -24 6 -11 8 -22 5 -26
-8 -7 -92 31 -111 51 -14 14 -118 65 -132 65 -5 0 -25 11 -44 24 -20 13 -84
53 -143 89 l-107 65 -78 -4 c-43 -2 -94 -4 -113 -4 -32 0 -37 -4 -53 -40 -9
-22 -17 -44 -17 -48 0 -5 -14 -24 -30 -42 -19 -22 -28 -40 -24 -50 13 -30 16
-70 5 -70 -6 0 -11 4 -11 10 0 5 -9 14 -20 20 -18 10 -21 7 -26 -20 -4 -16
-10 -30 -15 -30 -17 0 -21 89 -5 156 9 38 17 80 18 94 2 20 12 28 45 38 51 16
58 35 38 92 -18 50 -19 77 -5 82 13 4 26 165 16 201 -3 14 -21 34 -42 46 -23
14 -34 27 -30 36 3 9 -6 25 -22 40 -26 24 -26 25 -5 25 12 0 25 -4 28 -10 3
-5 22 -10 41 -10 37 0 46 -11 101 -117 14 -29 30 -53 35 -53 4 0 8 -40 8 -90
0 -88 0 -90 26 -96 33 -8 47 7 68 76 24 82 35 161 25 188 -5 13 -22 28 -39 33
l-30 11 -2 86 c-1 48 -1 96 0 107 5 45 0 100 -9 111 -16 20 15 41 51 36 37 -5
48 -25 29 -49 -13 -15 -10 -16 26 -10 22 4 51 8 65 8 14 1 5 5 -20 9 l-45 7
59 1 c51 2 62 -1 82 -23 22 -24 72 -36 59 -15 -3 6 -12 10 -20 10 -11 0 -25
20 -25 36 0 2 14 4 30 4 18 0 29 -5 28 -12 -2 -7 8 -14 22 -16 21 -3 22 -2 11
12 -12 14 -9 16 23 16 35 0 49 14 24 23 -7 2 -3 2 10 0 31 -5 28 13 -4 21 -14
4 -36 17 -49 30 -19 19 -38 25 -109 31 -101 8 -143 1 -151 -26 -9 -28 -75 -27
-75 1 0 22 -35 29 -42 8 -4 -11 -92 42 -109 66 -4 5 -12 5 -19 1 -6 -4 -17 1
-25 11 -8 11 -15 16 -15 12 0 -4 -21 4 -46 17 -26 14 -55 25 -65 25 -9 0 -19
4 -21 9 -6 17 -121 20 -188 7z m91 -1902 c9 -3 23 -19 30 -36 11 -27 10 -32
-7 -45 -18 -13 -43 -92 -44 -143 -1 -42 -13 -53 -44 -39 -35 16 -39 40 -22
119 8 36 12 68 10 72 -2 3 -22 9 -44 13 -40 7 -61 28 -53 53 5 12 134 16 174
6z m-356 -149 c-19 -36 -35 -79 -35 -94 0 -27 3 -29 50 -33 52 -5 148 -57 121
-66 -11 -4 -11 -6 0 -13 33 -20 -2 -16 -57 6 -92 38 -95 37 -157 -58 -30 -47
-61 -84 -70 -84 -9 0 -14 4 -11 9 3 4 1 8 -5 8 -6 0 -8 7 -5 15 4 8 11 12 16
9 6 -4 9 -1 6 7 -3 8 7 34 22 59 40 69 60 126 60 174 0 54 24 123 52 154 l22
23 13 -25 c11 -21 9 -31 -22 -91z m612 28 c41 -19 73 -78 74 -140 1 -44 -28
-280 -36 -293 -3 -5 -16 2 -29 15 -31 31 -79 39 -151 26 -79 -15 -85 -14 -85
8 0 41 145 64 228 36 21 -7 22 -5 22 51 0 32 -5 98 -11 147 l-12 89 -46 21
c-25 12 -48 23 -50 24 -2 1 2 9 9 18 16 20 43 19 87 -2z m-458 -308 c51 -37
91 -92 91 -125 0 -11 -19 -38 -42 -60 -40 -38 -47 -41 -88 -37 -44 4 -97 24
-132 49 -14 10 -20 8 -36 -12 -18 -22 -19 -27 -6 -52 9 -17 23 -28 35 -28 36
0 109 -22 103 -31 -8 -13 -106 -69 -121 -69 -7 0 -13 7 -13 15 0 8 -7 15 -15
15 -8 0 -17 12 -20 28 -4 15 -8 36 -11 47 -3 11 -9 34 -13 52 -7 27 -4 39 25
82 26 39 35 64 38 105 2 30 7 60 11 66 24 39 102 21 194 -45z m-705 -27 c3
-13 7 -34 9 -48 3 -14 12 -57 20 -95 9 -39 21 -136 27 -215 6 -80 15 -173 21
-207 12 -69 10 -77 -48 -231 -20 -52 -41 -95 -47 -97 -6 -2 -76 -15 -156 -30
-80 -15 -199 -38 -265 -51 -66 -12 -313 -59 -550 -104 -236 -44 -520 -98 -630
-120 -407 -79 -574 -111 -755 -140 -102 -17 -194 -33 -206 -35 -11 -1 -27 1
-35 6 -12 8 -12 10 1 19 11 7 12 12 4 18 -7 4 -44 203 -83 442 -39 239 -74
450 -77 468 -3 17 -3 32 -1 32 2 0 152 23 333 50 420 64 594 90 604 90 4 0 4
-17 0 -37 -5 -21 -15 -70 -24 -109 -9 -40 -16 -83 -16 -97 0 -42 29 -97 80
-151 26 -28 63 -78 81 -111 41 -76 108 -151 131 -147 10 2 18 -2 18 -7 0 -15
37 -14 47 1 4 7 10 76 14 153 9 165 22 267 46 341 17 54 33 71 33 35 0 -11 9
-61 21 -111 23 -100 54 -150 94 -150 27 0 27 -28 5 314 -5 83 -8 151 -7 152 1
1 99 17 217 34 118 18 404 60 635 95 231 35 428 63 437 64 11 1 19 -8 22 -21z
m313 -130 c-2 -7 -1 -22 3 -33 5 -14 -2 -33 -26 -66 -41 -56 -42 -72 -9 -87
14 -6 25 -15 26 -19 0 -5 2 -18 3 -30 4 -31 -16 -29 -81 8 l-54 31 17 27 c27
40 44 75 44 88 0 13 67 93 77 93 3 0 3 -6 0 -12z m293 -487 c19 -14 69 -52
110 -85 41 -33 77 -61 79 -63 3 -2 -6 -15 -20 -29 l-26 -25 -44 35 c-24 20
-71 54 -104 78 -64 44 -85 63 -85 73 0 3 7 17 16 30 17 26 19 26 74 -14z
m-225 -305 c35 -23 75 -90 75 -124 0 -27 -21 -82 -42 -108 -13 -18 -124 102
-120 129 4 18 2 19 -12 7 -13 -10 -20 -10 -28 -2 -9 9 -9 12 2 12 9 0 7 5 -7
15 -12 8 -29 12 -40 8 -12 -4 -10 0 7 15 14 12 20 21 15 22 -6 0 -16 -5 -23
-12 -7 -7 -12 -8 -12 -2 0 14 30 41 60 53 32 14 94 7 125 -13z m-199 -101 c-7
-26 -7 -26 59 -29 44 -2 65 -15 65 -41 0 -77 23 -103 62 -68 14 13 18 13 18 2
0 -8 3 -25 7 -38 4 -17 3 -22 -5 -17 -7 4 -10 2 -7 -6 10 -28 -10 -39 -53 -30
-32 8 -44 7 -53 -4 -9 -12 -5 -14 24 -14 71 0 83 -16 41 -55 -32 -30 -54 -32
-54 -6 0 11 -7 26 -15 35 -9 9 -18 42 -22 81 -3 36 -10 68 -15 71 -4 3 1 19
13 35 12 17 19 33 16 36 -3 2 -14 -10 -23 -29 -14 -26 -19 -29 -22 -15 -3 16
-5 17 -15 3 -7 -8 -25 -16 -42 -18 -27 -3 -30 0 -36 32 -7 32 -7 31 -6 -10 2
-45 2 -45 41 -48 24 -2 42 2 48 10 7 10 8 10 7 -2 -1 -8 0 -22 3 -30 27 -79
27 -82 13 -96 -13 -13 -44 -10 -46 5 0 3 -2 17 -5 30 -2 14 1 28 8 32 7 4 9
11 4 16 -4 4 -12 0 -17 -9 -8 -14 -15 -15 -34 -8 -14 5 -25 6 -26 2 -1 -4 -5
4 -9 18 -8 24 -8 24 -9 3 -1 -30 2 -39 14 -35 6 2 4 -2 -3 -10 -11 -11 -14
-10 -22 2 -11 18 -32 20 -42 5 -12 -16 -9 -32 9 -50 15 -15 17 -15 25 -1 5 9
14 16 20 16 6 0 1 -11 -12 -25 -26 -28 -40 -32 -40 -11 0 8 -7 17 -16 20 -21
8 -10 74 17 99 10 10 19 30 19 44 0 19 16 41 58 79 31 30 59 54 61 54 2 0 0
-11 -3 -25z m770 -1520 c36 -8 54 -62 56 -171 2 -128 -8 -184 -32 -184 -11 0
-24 -12 -32 -31 -9 -20 -29 -39 -61 -56 -45 -23 -50 -23 -67 -8 -14 13 -19 13
-23 3 -4 -9 -6 -9 -6 2 -1 10 -17 20 -42 27 -37 10 -43 8 -70 -14 -16 -14 -29
-21 -29 -16 -1 4 -7 -3 -15 -17 -14 -24 -14 -24 -15 -3 0 12 -8 26 -17 31 -15
9 -16 16 -5 62 17 73 16 90 -7 90 -11 0 -23 5 -26 10 -10 17 -25 11 -25 -9 0
-11 -7 -26 -15 -35 -19 -18 -36 -62 -28 -70 4 -3 17 -6 31 -6 21 0 24 -3 18
-27 -4 -16 -9 -59 -13 -98 -5 -60 -11 -78 -46 -127 -39 -57 -40 -57 -56 -36
-14 16 -21 19 -37 11 -10 -6 -41 -12 -69 -15 -27 -3 -42 -3 -32 -1 9 3 15 8
12 13 -3 5 -1 11 5 15 16 10 11 25 -9 25 -10 0 -24 -7 -31 -15 -7 -8 -9 -15
-5 -15 4 0 -4 -12 -18 -26 -25 -25 -47 -25 -47 -1 0 7 -9 20 -19 29 -18 15
-20 15 -26 -5 -6 -19 -8 -18 -15 13 -5 19 -6 38 -4 42 3 4 0 16 -6 25 -9 15
-10 14 -6 -7 5 -21 4 -20 -8 5 -10 22 -11 32 -3 37 8 5 6 9 -6 14 -9 3 -17 13
-17 20 0 15 -47 114 -54 114 -6 0 55 -189 93 -290 18 -47 41 -110 52 -140 12
-30 27 -68 34 -85 7 -16 18 -48 25 -70 7 -22 31 -85 52 -140 50 -124 108 -297
108 -319 0 -9 -4 -16 -10 -16 -5 0 -10 -5 -10 -11 0 -5 4 -7 10 -4 5 3 13 -7
16 -22 4 -15 18 -45 32 -65 19 -29 24 -50 23 -90 -1 -47 1 -50 14 -32 8 10 15
14 15 8 0 -5 -6 -19 -14 -30 -12 -16 -15 -16 -19 -4 -20 60 -42 117 -49 126
-5 6 -5 20 -2 30 4 11 3 16 -1 12 -8 -8 -42 73 -110 262 -19 52 -39 103 -45
112 -5 10 -10 23 -10 29 0 22 -102 269 -111 269 -5 0 -9 -4 -9 -10 0 -5 -7
-10 -15 -10 -8 0 -15 -4 -15 -9 0 -9 -38 -26 -75 -34 -17 -4 -17 -5 3 -6 33
-1 17 -21 -17 -21 -20 0 -30 6 -34 20 -3 12 -14 20 -26 20 -14 0 -21 -6 -21
-20 0 -20 -24 -28 -35 -10 -9 14 -80 4 -110 -16 -26 -17 -28 -17 -45 5 l-17
24 -6 -22 c-4 -18 -12 -22 -46 -20 -29 2 -41 8 -45 22 -2 10 -9 17 -14 14 -4
-4 -14 16 -21 42 -7 27 -23 59 -37 72 l-24 23 -20 -22 c-12 -13 -19 -31 -17
-44 2 -13 2 -17 0 -10 -6 18 -23 4 -23 -19 0 -10 -4 -19 -10 -19 -5 0 -10 -7
-10 -15 0 -8 5 -15 11 -15 14 0 7 -52 -8 -57 -6 -2 -13 4 -16 14 -3 10 -3 -4
0 -32 3 -39 -10 -10 -60 135 -77 226 -77 261 1 81 22 -52 31 -65 26 -41 -8 50
-57 150 -89 184 -26 28 -44 62 -59 114 -6 17 -3 22 11 22 11 0 25 6 32 13 6 6
17 12 24 12 7 0 13 12 15 28 2 18 9 27 22 27 10 0 25 3 34 6 12 5 16 0 16 -20
0 -29 -35 -66 -64 -66 -43 0 -4 -12 51 -16 32 -2 48 0 35 4 l-23 7 30 29 c34
33 39 46 15 46 -9 0 -14 7 -12 17 3 17 70 42 150 57 34 6 37 5 41 -21 4 -27 4
-27 6 4 1 27 6 32 34 39 17 3 119 35 226 70 107 35 219 68 250 75 103 21 266
66 297 82 22 11 126 37 150 37 3 0 15 -64 17 -90 1 -14 -2 -38 -6 -55 -8 -28
-8 -29 7 -10 8 11 16 28 16 38 0 10 4 16 8 13 4 -2 19 22 32 55 24 61 88 139
114 139 7 0 27 7 42 15 27 14 69 14 140 0z"/>
<path d="M3994 5475 c-3 -8 -1 -37 6 -65 13 -53 38 -76 90 -80 41 -4 47 -1 64
24 15 24 15 25 -43 69 -57 44 -94 67 -106 67 -3 0 -8 -7 -11 -15z"/>
<path d="M8193 7792 c-25 -4 -30 -21 -11 -40 9 -9 8 -12 -5 -12 -11 0 -17 -8
-17 -25 0 -23 4 -25 42 -25 23 0 39 -3 35 -6 -7 -7 -42 -11 -132 -14 l-60 -2
90 -13 c50 -8 126 -16 170 -19 44 -3 99 -8 123 -12 74 -9 45 11 -35 26 -43 8
-69 16 -58 17 11 2 83 -7 160 -20 l140 -23 3 59 c2 33 1 65 -2 72 -5 15 -64 7
-63 -8 1 -24 -16 -77 -24 -77 -5 0 -10 19 -10 43 l-1 42 -11 -42 c-9 -41 -27
-59 -27 -28 0 10 -11 15 -32 16 -31 1 -32 1 -8 9 l25 8 -28 1 c-16 1 -26 5
-23 9 3 5 18 7 34 4 21 -3 31 1 36 14 9 24 -3 34 -50 40 -29 4 -35 3 -24 -5
24 -17 -6 -14 -58 6 -35 13 -45 14 -52 4 -5 -9 -9 -10 -14 -2 -7 10 -59 12
-113 3z"/>
<path d="M5513 7650 c-12 -5 -24 -19 -28 -31 -6 -18 -12 -21 -45 -16 -31 4
-39 1 -43 -13 -3 -10 0 -23 7 -30 8 -8 7 -13 -4 -21 -11 -7 -7 -8 14 -3 21 5
27 4 21 -5 -5 -9 -1 -9 14 1 18 11 23 10 38 -5 16 -16 16 -17 -7 -18 -25 0
-25 0 -3 -9 25 -10 46 -43 35 -56 -4 -5 1 -2 11 5 10 8 14 17 8 20 -5 3 19 6
52 6 36 0 68 -5 75 -13 8 -7 17 -10 22 -7 5 3 11 1 15 -5 4 -6 11 -7 17 -4 7
5 8 2 3 -6 -6 -10 -2 -12 15 -7 17 4 20 3 11 -6 -6 -6 -11 -15 -11 -20 0 -5 9
1 19 14 14 18 33 25 77 30 l59 6 -50 2 c-27 1 -57 6 -65 11 -17 11 -13 12 53
12 20 0 37 3 37 8 0 5 -13 6 -29 4 -16 -3 -32 0 -36 6 -3 5 0 10 7 10 8 0 9 3
3 8 -5 4 -11 17 -12 29 -2 18 4 23 30 26 l32 4 -32 1 c-26 2 -33 6 -33 22 0
11 -12 25 -27 34 -34 17 -219 29 -250 16z"/>
<path d="M6206 7570 c-12 -30 -14 -31 -25 -14 -7 12 -13 15 -18 9 -5 -6 -24
-10 -43 -10 -19 1 -46 -2 -60 -6 l-25 -7 25 -3 c14 -1 30 -3 37 -3 22 -2 24
-13 3 -19 -11 -3 -20 -1 -20 4 0 5 -14 9 -31 9 -39 0 -29 -17 16 -26 19 -3 35
-10 35 -14 0 -4 21 -13 48 -18 l47 -11 -60 4 c-44 3 -52 2 -30 -4 21 -6 24 -9
10 -10 -15 -1 -17 -3 -7 -10 8 -4 24 -7 38 -5 13 1 24 -2 24 -7 0 -5 -24 -9
-52 -9 -34 0 -48 3 -39 9 9 6 4 10 -18 13 -17 2 -31 1 -31 -3 0 -4 -9 -11 -20
-14 -43 -14 -16 -24 50 -18 73 6 77 4 60 -27 -9 -17 -6 -19 32 -16 52 3 84
-10 69 -28 -14 -17 -4 -26 28 -25 l26 1 -24 7 c-47 13 1 30 97 35 14 1 22 7
22 19 0 9 7 17 15 17 17 0 20 -16 5 -23 -6 -3 -5 -4 2 -3 19 5 50 -13 43 -25
-4 -5 0 -9 8 -9 23 0 28 12 9 26 -15 12 -15 15 -2 24 8 5 29 10 47 10 27 0 30
3 25 23 -5 19 -3 20 10 9 17 -13 108 -14 108 0 0 4 7 8 16 8 8 0 12 -4 9 -10
-3 -6 4 -10 17 -10 18 0 20 2 8 10 -13 8 -12 10 5 11 11 1 26 0 34 -1 8 -1 17
3 20 9 4 6 58 13 126 15 66 2 103 2 83 0 -42 -6 -52 -30 -15 -37 19 -3 17 -5
-11 -12 -54 -13 -50 -27 6 -21 28 3 53 2 56 -2 11 -18 -35 -42 -77 -41 -32 0
-38 2 -22 9 19 8 19 9 -1 9 -13 1 -24 -7 -27 -18 -3 -13 -11 -18 -23 -15 -11
2 -32 0 -49 -5 -23 -7 -25 -10 -10 -11 11 -1 31 -1 45 0 32 2 15 -17 -20 -23
-14 -2 4 -2 40 1 76 5 75 -7 -2 -18 -50 -7 -49 -8 32 -8 66 -1 81 1 66 9 -15
9 -16 13 -5 20 23 15 52 11 45 -6 -4 -12 3 -15 32 -14 37 1 37 1 9 11 -21 8
-25 13 -17 23 8 9 6 18 -7 31 -17 17 -17 18 0 11 10 -4 28 -7 40 -8 21 0 21
-1 2 -9 -16 -7 -13 -9 18 -9 43 -1 45 -6 15 -32 l-21 -19 26 0 c15 0 27 -4 27
-9 0 -9 -25 -14 -120 -25 -19 -2 -6 -3 30 -3 36 1 82 -5 103 -12 20 -7 50 -10
66 -6 17 3 32 2 36 -4 10 -18 55 -13 55 5 0 11 -6 15 -20 11 -11 -3 -20 -1
-20 4 0 15 37 10 54 -6 8 -8 30 -18 48 -21 18 -3 39 -7 45 -9 22 -7 4 -31 -24
-33 -39 -3 -42 -12 -4 -12 19 0 30 -4 26 -10 -3 -5 -1 -10 4 -10 6 0 11 7 11
16 0 17 6 17 144 -2 35 -5 47 -4 42 4 -4 7 3 14 18 18 26 6 50 -2 42 -15 -3
-4 18 -7 47 -5 44 2 46 2 17 -5 l-35 -7 48 -8 c26 -5 81 -5 122 -1 65 6 75 5
75 -9 0 -11 -9 -16 -27 -17 -26 -1 -25 -2 7 -10 38 -10 130 -2 130 11 0 11 49
19 55 10 3 -5 -1 -11 -7 -13 -7 -3 1 -6 17 -6 23 -1 27 -4 15 -11 -13 -8 -12
-10 5 -11 11 -1 4 -5 -15 -9 -31 -6 -32 -8 -8 -9 30 -1 45 -16 26 -25 -7 -3
-4 -5 7 -3 11 1 26 -2 34 -7 9 -6 12 -5 8 1 -4 6 4 11 18 11 13 0 26 -7 29
-14 3 -8 15 -14 26 -14 11 0 20 -4 20 -10 0 -5 9 -10 20 -10 11 0 20 5 20 11
0 11 93 7 178 -8 44 -7 41 -23 -5 -23 -28 0 -34 -3 -23 -10 13 -8 12 -10 -2
-10 -10 0 -18 -4 -18 -10 0 -5 -10 -11 -22 -12 -13 0 0 -4 27 -8 45 -6 43 -7
-32 -8 -46 -1 -83 -6 -83 -11 0 -10 135 -25 149 -16 5 3 13 0 17 -6 5 -8 -21
-9 -92 -4 -55 3 -108 9 -119 12 -14 4 -17 2 -10 -5 14 -15 92 -31 102 -22 9 8
153 -7 163 -17 3 -3 -10 -3 -28 -1 -18 3 -29 1 -25 -3 8 -7 64 -13 93 -9 9 1
4 6 -10 11 -18 6 -11 8 28 4 42 -3 52 -1 52 12 0 12 -7 14 -35 9 -39 -8 -78 0
-70 14 3 4 28 11 56 15 53 7 61 24 18 36 -24 7 -24 7 4 8 33 1 37 28 5 34
l-23 4 23 2 c18 1 22 7 22 31 0 22 -5 30 -17 31 -15 0 -15 2 2 8 19 8 18 9 -5
13 -23 5 -23 5 -2 7 22 1 22 2 22 154 l0 154 -120 16 c-66 9 -125 19 -131 22
-17 11 -129 15 -129 5 0 -6 -9 -10 -20 -10 -21 0 -28 -24 -10 -35 15 -9 12
-22 -7 -29 -19 -8 -40 8 -24 18 6 4 11 11 11 17 0 15 -19 10 -40 -11 -20 -20
-20 -20 -17 3 2 23 -11 26 -46 12 -16 -7 -16 -5 -6 19 7 14 18 26 26 26 8 0
13 13 13 36 0 27 -4 35 -14 31 -7 -3 -19 0 -25 6 -6 6 -11 8 -11 4 0 -4 -10
-2 -22 5 -13 7 -26 11 -31 10 -4 -1 -6 3 -5 10 2 6 -5 14 -14 16 -13 2 -16 -1
-12 -12 6 -14 -5 -21 -28 -17 -5 0 -8 -3 -8 -9 0 -5 8 -10 18 -11 10 0 12 -3
5 -6 -7 -2 -13 -8 -13 -12 0 -9 72 -7 88 2 16 11 32 0 32 -21 0 -26 -38 -46
-56 -31 -11 9 -12 14 -4 19 7 5 4 9 -9 13 -12 3 -24 1 -27 -4 -7 -13 -42 -11
-46 2 -4 13 -124 29 -135 18 -5 -4 -26 -10 -48 -12 -24 -3 -15 -4 22 -3 34 0
65 -2 69 -6 4 -4 18 -5 30 -2 13 4 24 2 24 -4 0 -8 -319 -24 -329 -16 -2 2 7
8 20 14 19 8 12 9 -34 5 -38 -3 -56 -2 -52 5 3 5 39 10 78 10 43 0 67 4 59 9
-8 4 -44 6 -82 3 -62 -4 -68 -3 -74 16 -5 16 -18 22 -49 26 -306 39 -320 38
-342 -12 -11 -25 -25 -28 -44 -9 -10 10 -11 9 -6 -5 5 -13 2 -18 -9 -18 -9 0
-16 7 -16 16 0 14 -2 13 -17 -1 -15 -15 -34 -17 -147 -12 -73 3 -115 2 -96 -2
32 -8 30 -9 -25 -11 -33 -1 -64 -2 -68 -1 -5 1 -23 -5 -40 -13 -43 -19 -95
-27 -102 -16 -3 5 10 12 30 16 19 3 35 11 35 16 0 6 -6 8 -13 5 -8 -3 -20 -1
-28 4 -10 6 -7 9 14 9 15 0 26 5 25 12 -2 7 16 15 45 19 68 11 70 19 5 19 -40
0 -57 -4 -62 -15 -3 -8 -13 -15 -21 -15 -9 0 -13 5 -10 10 3 6 1 10 -6 10 -8
0 -8 4 1 15 10 12 10 15 -4 15 -9 0 -16 6 -16 14 0 16 -40 22 -202 32 l-118 7
-14 -33z"/>
<path d="M6407 7083 c-14 -27 -20 -70 -24 -165 -6 -137 -1 -158 42 -158 26 0
39 -34 29 -76 -5 -21 -11 -25 -38 -22 l-31 3 -3 -127 c-2 -120 -4 -128 -22
-128 -13 0 -20 7 -20 20 0 11 7 20 15 20 12 0 15 14 15 64 0 59 -2 65 -22 68
-19 2 -24 10 -26 44 -3 37 0 42 22 48 l26 6 0 151 0 150 -30 37 -29 37 -136
-1 c-132 0 -136 -1 -152 -25 -10 -13 -23 -30 -30 -37 -7 -7 -10 -23 -7 -36 3
-12 6 -43 7 -68 1 -25 8 -53 16 -62 11 -13 11 -20 3 -24 -14 -9 -24 -62 -11
-62 5 0 9 -7 9 -16 0 -8 -4 -12 -10 -9 -5 3 -10 4 -10 0 0 -3 11 -10 24 -15
17 -6 25 -18 28 -44 4 -38 -6 -56 -32 -56 -14 0 -16 -16 -16 -125 1 -104 4
-125 16 -125 13 -1 13 -2 0 -9 -19 -11 -166 -36 -295 -52 -55 -6 -103 -14
-107 -18 -3 -3 25 -40 64 -81 59 -63 170 -188 268 -302 16 -19 33 -28 54 -28
28 0 29 -1 10 -14 -18 -14 -18 -15 -1 -22 10 -3 37 -3 60 1 44 7 284 42 352
51 22 3 78 12 125 20 47 8 128 21 180 29 52 8 124 21 160 29 36 8 133 24 215
36 215 29 329 50 340 61 5 5 0 9 -15 9 -13 0 -21 2 -18 5 5 6 84 20 303 54 72
11 234 36 360 56 282 45 436 63 495 58 30 -2 39 0 26 5 -18 8 -18 9 -2 15 10
4 26 7 37 7 18 0 19 10 19 215 l0 215 -22 -5 c-13 -2 -68 -9 -123 -15 -55 -6
-190 -24 -300 -40 -110 -16 -317 -45 -460 -65 -143 -20 -341 -47 -440 -60
-307 -43 -480 -63 -487 -58 -5 2 -8 22 -8 44 0 30 4 39 18 39 14 0 17 10 17
60 l0 60 -38 0 -37 0 3 48 c3 41 6 47 27 50 46 7 48 15 49 168 1 200 13 189
-187 190 -86 0 -173 4 -192 7 -33 7 -36 6 -53 -30z"/>
<path d="M8360 5841 c0 -5 -18 -12 -40 -16 -22 -4 -40 -12 -40 -18 0 -7 -5 -6
-11 3 -8 11 -12 12 -16 3 -2 -7 -11 -13 -19 -13 -8 0 -14 -4 -14 -9 0 -12 -60
-32 -73 -24 -6 4 -8 0 -5 -9 4 -8 -2 -22 -13 -31 -10 -9 -19 -24 -19 -32 0 -9
-9 -15 -22 -15 -36 0 -49 -12 -34 -31 6 -9 20 -18 30 -20 11 -2 21 -10 24 -18
3 -10 0 -12 -12 -8 -13 5 -16 1 -14 -21 3 -31 15 -42 43 -41 17 0 17 2 -4 10
-34 13 -14 31 24 21 21 -6 30 -15 31 -30 1 -12 9 -33 18 -47 9 -14 12 -25 7
-25 -6 0 -3 -13 7 -29 9 -16 20 -27 24 -25 5 3 8 -4 8 -15 0 -10 6 -21 13 -23
6 -3 13 -18 15 -34 5 -59 7 -64 23 -64 8 0 21 -11 27 -25 15 -32 15 -36 1 -32
-6 1 -14 -4 -16 -10 -3 -7 0 -13 6 -13 8 0 9 -14 5 -42 -5 -30 -4 -39 5 -34 8
6 10 -3 5 -33 -5 -30 -2 -44 10 -56 9 -9 14 -21 11 -26 -9 -13 -43 -11 -48 4
-3 7 -7 5 -12 -8 -3 -11 -11 -28 -16 -37 -7 -14 -3 -21 21 -33 61 -32 191 -51
318 -46 l32 1 0 459 c0 253 -3 467 -6 476 -6 14 -8 13 -21 -5 -20 -28 -63 -27
-63 2 0 21 0 21 -14 2 -13 -17 -15 -17 -21 -2 -5 13 -12 14 -38 7 -35 -10 -97
-2 -97 12 0 5 -4 9 -10 9 -5 0 -10 -4 -10 -9z"/>
<path d="M43 5643 l-43 -4 0 -330 c0 -181 3 -329 8 -329 7 0 112 16 170 25 30
6 32 8 32 48 0 22 -13 118 -30 212 -16 93 -36 217 -43 275 -14 116 -9 111 -94
103z"/>
<path d="M5850 3770 c-14 -5 -96 -25 -182 -45 -87 -20 -158 -40 -158 -43 0 -4
45 -52 101 -107 97 -96 102 -99 116 -80 8 11 52 80 98 153 86 135 87 143 25
122z"/>
<path d="M2126 3580 c-66 -23 -126 -46 -133 -52 -20 -16 -16 -38 8 -38 15 0
19 -5 15 -15 -10 -27 28 -17 130 36 54 28 104 55 110 60 7 5 29 18 50 29 l39
19 -50 0 c-32 1 -92 -13 -169 -39z"/>
<path d="M1347 3449 c-10 -6 -32 -9 -50 -8 -18 2 -65 -1 -104 -5 -70 -8 -73
-10 -73 -35 1 -34 28 -133 29 -103 1 12 6 22 12 22 8 0 9 -11 5 -32 -4 -24 -3
-29 4 -18 5 8 10 24 10 36 0 26 46 50 65 34 8 -7 17 -4 29 9 10 10 33 22 52
25 19 4 34 11 34 16 0 6 6 10 13 10 8 0 22 9 32 20 18 20 17 20 -14 20 -19 0
-30 4 -26 10 8 12 5 12 -18 -1z"/>
<path d="M1057 3147 l-58 -9 7 -127 c12 -224 18 -266 34 -263 8 2 44 9 80 16
l65 12 -2 35 c-2 19 -10 101 -18 183 -8 82 -15 153 -15 157 0 11 -15 10 -93
-4z"/>
<path d="M1899 2838 c-7 -13 -30 -47 -51 -75 l-38 -53 24 -107 c14 -60 35
-162 47 -228 12 -66 26 -124 30 -129 6 -6 28 -3 59 8 74 26 83 14 10 -14 l-62
-25 5 -38 c3 -21 7 -41 10 -43 3 -3 32 6 66 20 33 14 66 26 73 26 16 0 -32
-39 -49 -40 -6 0 -18 -6 -25 -12 -7 -7 -22 -15 -33 -16 -28 -5 -29 -8 -15 -41
l12 -30 36 24 c21 13 49 27 64 30 24 6 28 4 37 -32 17 -61 48 -195 56 -238 4
-22 10 -34 12 -28 4 11 -25 149 -86 413 -11 47 -32 139 -47 205 -14 66 -42
179 -61 250 -19 72 -37 142 -40 158 -7 37 -19 42 -34 15z"/>
<path d="M1034 2608 c3 -24 8 -86 11 -138 14 -255 28 -465 60 -915 19 -269 39
-566 45 -660 16 -253 50 -847 50 -872 0 -23 2 -23 120 -23 66 0 120 3 120 8
-1 52 -90 1079 -131 1497 -11 115 -43 467 -65 700 -8 88 -17 192 -21 230 l-6
70 -94 73 -94 72 5 -42z"/>
<path d="M1994 1853 c8 -64 350 -1800 362 -1841 2 -9 36 -12 124 -12 111 0
121 2 116 18 -3 9 -13 49 -21 87 -16 69 -42 176 -149 615 -67 270 -187 779
-223 943 -17 76 -30 116 -38 114 -6 -3 -46 24 -89 59 -43 35 -81 64 -84 64 -2
0 -2 -21 2 -47z"/>
</g>
</svg>
